<svg width="311" height="40" viewBox="0 0 311 40" fill="none" xmlns="http://www.w3.org/2000/svg">
<path d="M0 40V10H20V20H10V40H0ZM20 20H30V40H20V20ZM30 20V10H40V20H30ZM40 40V20H50V40H40ZM60 40V20H70V40H60ZM60 10V-1.19209e-06H70V10H60ZM89.9805 40V30H99.9805V20H89.9805V10H109.98V40H89.9805ZM89.9805 20V30H79.9805V20H89.9805ZM150 10V40H130V30H140V10H150ZM130 30H120V10H130V30ZM160.02 40V-1.19209e-06H170.02V10H180.02V20H170.02V40H160.02ZM180.02 20H190.02V40H180.02V20ZM210.039 40V30H220.039V20H210.039V10H230.039V40H210.039ZM210.039 20V30H200.039V20H210.039ZM270.059 10V40H250.059V30H260.059V10H270.059ZM250.059 30H240.059V10H250.059V30ZM280.078 40V30H290.078V10H310.078V20H300.078V40H280.078Z" fill="white"/>
</svg>
