<svg xmlns="http://www.w3.org/2000/svg" viewBox="0 0 977 977" style="fill:#d3d0c8">
  <polygon points="140.7 152 140.7 295 188.5 295 188.5 200.2 235.5 200.2 235.5 295 283.3 295 283.3 200 330.5 200 330.5 295 378 295 378 199.8 330.5 200 330.5 152"/>
  <polygon points="781.5 152 828.7 152 828.7 295 734 295 734 247.8 781.3 247.8 781.3 152"/>
  <polygon points="549.6 152 644.5 152 644.5 295 549.5 295 549.5 247 597 247 597 200 549.5 200"/>
  <rect x="417.1" y="199.8" width="46.8" height="95.1"/>
  <rect x="417" y="105.2" width="46.8" height="46.8"/>
  <rect x="502" y="200" width="47.5" height="47"/>
  <rect x="686.8" y="152" width="47.2" height="95.8"/>
  <rect x="416.8" y="700.6" width="137" height="137"/>
  <rect x="553.8" y="563.1" width="137" height="137"/>
  <rect x="279.8" y="563.1" width="137" height="137"/>
  <rect x="142.8" y="426.1" width="137" height="137"/>
  <rect x="690.8" y="426.1" width="137" height="137"/>
</svg>