<svg xmlns="http://www.w3.org/2000/svg" viewBox="0 0 1805.4 325.5" style="fill:#d3d0c8">
  <path class="st2" d="M102.7 250V100h100v50h-50v100H102.7zM202.7 150h50v100h-50V150zM252.7 150v-50h50v50H252.7zM302.7 250V150h50v100H302.7z"/>
  <path class="st2" d="M402.7 100V50h50v50H402.7zM402.7 250V150h50v100H402.7z"/>
  <path class="st2" d="M552.7 150v50h-50v-50H552.7zM552.7 250v-50h50v-50h-50v-50h100v150H552.7z"/>
  <path class="st2" d="M752.7 200h-50V100h50V200zM852.7 100v150h-100v-50h50V100H852.7z"/>
  <path class="st2" d="M902.7 250V50h50v50h50v50h-50v100H902.7zM1002.7 150h50v100h-50V150z"/>
  <path class="st2" d="M1152.7 150v50h-50v-50H1152.7zM1152.7 250v-50h50v-50h-50v-50h100v150H1152.7z"/>
  <path class="st2" d="M1352.7 200h-50V100h50V200zM1452.7 100v150h-100v-50h50V100H1452.7z"/>
  <path class="st2" d="M1502.7 250v-50h50V100h100v50h-50v100H1502.7z"/>
</svg>